<?xml version='1.0' encoding='UTF-8'?>
<svg xmlns="http://www.w3.org/2000/svg" width="39" height="22" viewBox="0 0 39 22" fill="none">
  <path d="M 0.336,14.337 L 0.112,19.448 L 0.109,19.552 L 0.111,19.655 L 0.118,19.757 L 0.128,19.858 L 0.142,19.957 L 0.161,20.056 L 0.183,20.153 L 0.209,20.248 L 0.239,20.342 L 0.272,20.434 L 0.309,20.524 L 0.349,20.613 L 0.393,20.700 L 0.440,20.784 L 0.491,20.867 L 0.544,20.947 L 0.601,21.026 L 0.660,21.101 L 0.723,21.175 L 0.788,21.246 L 0.856,21.314 L 0.927,21.380 L 1.000,21.442 L 1.075,21.502 L 1.153,21.559 L 1.234,21.613 L 1.316,21.664 L 1.401,21.712 L 1.488,21.756 L 1.577,21.797 L 1.667,21.834 L 1.760,21.868 L 1.854,21.898 L 1.950,21.925 L 2.047,21.947 L 2.146,21.966 L 2.246,21.981 L 2.347,21.991 L 2.450,21.998 L 2.554,22.000 L 17.974,22.000 L 33.394,22.000 L 33.479,21.999 L 33.564,21.994 L 33.648,21.987 L 33.731,21.977 L 33.813,21.964 L 33.895,21.948 L 33.976,21.930 L 34.055,21.909 L 34.134,21.885 L 34.212,21.859 L 34.288,21.831 L 34.364,21.800 L 34.438,21.766 L 34.511,21.730 L 34.582,21.692 L 34.653,21.651 L 34.721,21.608 L 34.788,21.563 L 34.854,21.516 L 34.918,21.467 L 34.981,21.415 L 35.041,21.362 L 35.100,21.306 L 35.157,21.249 L 35.212,21.189 L 35.266,21.128 L 35.317,21.065 L 35.366,21.000 L 35.413,20.933 L 35.458,20.865 L 35.501,20.795 L 35.541,20.724 L 35.580,20.651 L 35.615,20.576 L 35.649,20.500 L 35.680,20.422 L 35.708,20.344 L 35.734,20.263 L 35.757,20.182 L 35.777,20.099 L 37.211,13.809 L 38.645,7.520 L 38.660,7.449 L 38.673,7.378 L 38.684,7.307 L 38.693,7.235 L 38.699,7.164 L 38.704,7.093 L 38.706,7.022 L 38.706,6.952 L 38.705,6.881 L 38.701,6.811 L 38.695,6.741 L 38.687,6.671 L 38.678,6.601 L 38.666,6.532 L 38.652,6.464 L 38.637,6.396 L 38.619,6.328 L 38.600,6.261 L 38.578,6.195 L 38.555,6.129 L 38.530,6.064 L 38.503,5.999 L 38.474,5.936 L 38.443,5.873 L 38.411,5.811 L 38.377,5.750 L 38.341,5.690 L 38.303,5.631 L 38.264,5.573 L 38.222,5.516 L 38.179,5.460 L 38.135,5.405 L 38.089,5.352 L 38.041,5.299 L 37.991,5.248 L 37.940,5.199 L 37.887,5.150 L 37.833,5.103 L 37.777,5.058 L 37.719,5.013 L 34.692,2.767 L 31.666,0.521 L 31.637,0.500 L 31.608,0.479 L 31.578,0.459 L 31.549,0.439 L 31.519,0.420 L 31.488,0.401 L 31.458,0.382 L 31.427,0.364 L 31.396,0.347 L 31.365,0.330 L 31.333,0.313 L 31.302,0.297 L 31.270,0.281 L 31.237,0.266 L 31.205,0.252 L 31.172,0.237 L 31.140,0.224 L 31.107,0.210 L 31.073,0.198 L 31.040,0.185 L 31.007,0.174 L 30.973,0.162 L 30.939,0.152 L 30.905,0.141 L 30.871,0.132 L 30.837,0.122 L 30.802,0.114 L 30.768,0.105 L 30.733,0.098 L 30.698,0.091 L 30.663,0.084 L 30.628,0.078 L 30.593,0.072 L 30.557,0.067 L 30.522,0.063 L 30.487,0.059 L 30.451,0.055 L 30.415,0.052 L 30.380,0.050 L 30.344,0.048 L 29.321,0.014 L 28.310,0.000 L 27.311,0.006 L 26.324,0.030 L 25.350,0.071 L 24.389,0.130 L 23.441,0.205 L 22.507,0.296 L 21.587,0.402 L 20.681,0.522 L 19.789,0.657 L 18.912,0.804 L 18.050,0.963 L 17.204,1.134 L 16.373,1.317 L 15.558,1.509 L 14.759,1.711 L 13.976,1.922 L 13.211,2.141 L 12.462,2.368 L 11.731,2.602 L 11.017,2.842 L 10.321,3.087 L 9.643,3.337 L 8.984,3.592 L 8.344,3.850 L 7.723,4.110 L 7.121,4.373 L 6.539,4.637 L 5.976,4.902 L 5.434,5.167 L 4.913,5.431 L 4.412,5.694 L 3.932,5.955 L 3.474,6.213 L 3.037,6.468 L 2.622,6.719 L 2.230,6.965 L 1.860,7.206 L 1.513,7.441 L 1.469,7.471 L 1.427,7.503 L 1.385,7.536 L 1.344,7.570 L 1.305,7.604 L 1.266,7.640 L 1.228,7.676 L 1.191,7.713 L 1.155,7.751 L 1.121,7.790 L 1.087,7.829 L 1.054,7.870 L 1.022,7.911 L 0.991,7.953 L 0.962,7.995 L 0.933,8.038 L 0.905,8.082 L 0.878,8.127 L 0.853,8.172 L 0.828,8.217 L 0.804,8.264 L 0.782,8.310 L 0.760,8.358 L 0.740,8.405 L 0.720,8.454 L 0.702,8.503 L 0.685,8.552 L 0.669,8.602 L 0.654,8.652 L 0.640,8.702 L 0.627,8.753 L 0.615,8.804 L 0.604,8.856 L 0.595,8.908 L 0.586,8.960 L 0.579,9.013 L 0.572,9.065 L 0.567,9.118 L 0.563,9.171 L 0.560,9.225 L 0.336,14.337 Z M 2.060,9.269 L 2.062,9.248 L 2.064,9.227 L 2.066,9.206 L 2.069,9.186 L 2.072,9.166 L 2.076,9.146 L 2.080,9.126 L 2.085,9.107 L 2.089,9.087 L 2.095,9.069 L 2.100,9.050 L 2.106,9.032 L 2.112,9.014 L 2.119,8.997 L 2.126,8.979 L 2.133,8.963 L 2.140,8.946 L 2.148,8.930 L 2.156,8.915 L 2.164,8.899 L 2.173,8.884 L 2.182,8.870 L 2.191,8.856 L 2.200,8.842 L 2.209,8.828 L 2.219,8.815 L 2.229,8.803 L 2.239,8.790 L 2.249,8.778 L 2.259,8.767 L 2.270,8.755 L 2.281,8.744 L 2.292,8.734 L 2.303,8.723 L 2.315,8.713 L 2.327,8.704 L 2.339,8.694 L 2.351,8.685 L 2.366,8.674 L 2.689,8.456 L 3.037,8.229 L 3.409,7.996 L 3.803,7.758 L 4.220,7.515 L 4.659,7.267 L 5.119,7.017 L 5.600,6.764 L 6.102,6.510 L 6.625,6.254 L 7.168,5.999 L 7.731,5.743 L 8.313,5.489 L 8.914,5.237 L 9.535,4.987 L 10.173,4.741 L 10.830,4.498 L 11.505,4.260 L 12.198,4.027 L 12.908,3.800 L 13.634,3.580 L 14.378,3.367 L 15.138,3.162 L 15.914,2.966 L 16.706,2.779 L 17.513,2.602 L 18.335,2.436 L 19.173,2.281 L 20.025,2.138 L 20.891,2.008 L 21.771,1.891 L 22.666,1.788 L 23.573,1.699 L 24.494,1.626 L 25.428,1.569 L 26.374,1.529 L 27.333,1.506 L 28.303,1.501 L 29.286,1.514 L 30.281,1.547 L 30.293,1.547 L 30.305,1.548 L 30.318,1.549 L 30.331,1.551 L 30.343,1.552 L 30.356,1.554 L 30.369,1.555 L 30.381,1.557 L 30.394,1.560 L 30.407,1.562 L 30.419,1.565 L 30.432,1.567 L 30.445,1.570 L 30.457,1.574 L 30.470,1.577 L 30.483,1.581 L 30.495,1.585 L 30.508,1.589 L 30.521,1.593 L 30.533,1.597 L 30.546,1.602 L 30.558,1.607 L 30.571,1.612 L 30.583,1.617 L 30.595,1.622 L 30.608,1.628 L 30.620,1.633 L 30.632,1.639 L 30.644,1.646 L 30.656,1.652 L 30.668,1.658 L 30.680,1.665 L 30.692,1.672 L 30.704,1.679 L 30.715,1.686 L 30.727,1.694 L 30.738,1.701 L 30.750,1.709 L 30.761,1.717 L 30.776,1.729 L 33.798,3.972 L 36.816,6.211 L 36.847,6.235 L 36.869,6.253 L 36.890,6.271 L 36.911,6.290 L 36.930,6.309 L 36.949,6.329 L 36.968,6.349 L 36.986,6.369 L 37.003,6.391 L 37.019,6.412 L 37.035,6.434 L 37.050,6.456 L 37.065,6.479 L 37.079,6.502 L 37.092,6.526 L 37.105,6.550 L 37.116,6.574 L 37.128,6.599 L 37.138,6.624 L 37.148,6.649 L 37.157,6.674 L 37.165,6.700 L 37.173,6.726 L 37.179,6.752 L 37.185,6.779 L 37.191,6.805 L 37.195,6.832 L 37.199,6.859 L 37.202,6.885 L 37.204,6.912 L 37.206,6.940 L 37.206,6.967 L 37.206,6.994 L 37.205,7.021 L 37.204,7.049 L 37.201,7.076 L 37.198,7.103 L 37.194,7.131 L 37.189,7.158 L 37.180,7.197 L 35.749,13.476 L 34.318,19.753 L 34.307,19.798 L 34.298,19.830 L 34.288,19.861 L 34.277,19.891 L 34.265,19.921 L 34.252,19.950 L 34.238,19.979 L 34.224,20.007 L 34.208,20.034 L 34.192,20.061 L 34.174,20.088 L 34.156,20.113 L 34.137,20.138 L 34.117,20.163 L 34.097,20.186 L 34.075,20.209 L 34.053,20.231 L 34.030,20.253 L 34.007,20.274 L 33.983,20.294 L 33.958,20.313 L 33.932,20.331 L 33.906,20.349 L 33.880,20.365 L 33.853,20.381 L 33.825,20.396 L 33.797,20.410 L 33.768,20.423 L 33.739,20.435 L 33.710,20.446 L 33.680,20.456 L 33.650,20.465 L 33.619,20.473 L 33.588,20.480 L 33.557,20.486 L 33.525,20.491 L 33.493,20.495 L 33.460,20.497 L 33.427,20.499 L 33.381,20.500 L 2.570,20.500 L 2.513,20.499 L 2.472,20.496 L 2.433,20.492 L 2.394,20.486 L 2.356,20.479 L 2.319,20.471 L 2.283,20.461 L 2.247,20.449 L 2.211,20.436 L 2.177,20.422 L 2.143,20.406 L 2.110,20.389 L 2.077,20.371 L 2.045,20.351 L 2.014,20.331 L 1.984,20.308 L 1.954,20.285 L 1.926,20.261 L 1.898,20.235 L 1.872,20.208 L 1.846,20.181 L 1.822,20.152 L 1.799,20.123 L 1.777,20.092 L 1.756,20.061 L 1.737,20.029 L 1.718,19.996 L 1.702,19.963 L 1.686,19.929 L 1.672,19.894 L 1.659,19.859 L 1.648,19.823 L 1.638,19.787 L 1.629,19.750 L 1.622,19.713 L 1.617,19.675 L 1.613,19.636 L 1.611,19.596 L 1.610,19.556 L 1.611,19.499 L 1.835,14.402 L 2.058,9.298 L 2.060,9.269 Z" fill="#1c212a"/>
  <path d="M21.164 18H14.0751V6.09668H16.7562V15.8252H21.164V18ZM22.7743 18V6.09668H27.1073C28.4354 6.09668 29.4564 6.34017 30.1703 6.82715C30.8842 7.31413 31.2411 8.00033 31.2411 8.88574C31.2411 9.52767 31.0225 10.0894 30.5853 10.5708C30.1537 11.0522 29.6003 11.387 28.9252 11.5752V11.6084C29.7719 11.7135 30.447 12.0262 30.9506 12.5464C31.4597 13.0666 31.7142 13.7002 31.7142 14.4473C31.7142 15.5374 31.3241 16.4035 30.5438 17.0454C29.7636 17.6818 28.6983 18 27.348 18H22.7743ZM25.4555 8.07227V10.8945H26.6342C27.1876 10.8945 27.622 10.7617 27.9374 10.4961C28.2584 10.2249 28.4188 9.85417 28.4188 9.38379C28.4188 8.50944 27.7658 8.07227 26.4599 8.07227H25.4555ZM25.4555 12.8867V16.0244H26.9081C27.5279 16.0244 28.0121 15.8805 28.3607 15.5928C28.7149 15.305 28.892 14.9121 28.892 14.4141C28.892 13.9382 28.7177 13.5646 28.369 13.2935C28.0259 13.0223 27.5445 12.8867 26.9247 12.8867H25.4555Z" fill="#1C212A"/>
</svg>
