<?xml version='1.0' encoding='UTF-8'?>
<svg xmlns="http://www.w3.org/2000/svg" width="33" height="32" viewBox="0 0 33 32" fill="none">
  <path d="M 18.880,0.000 L 6.964,0.000 L 6.856,0.003 L 6.750,0.011 L 6.646,0.025 L 6.545,0.043 L 6.445,0.067 L 6.347,0.096 L 6.252,0.129 L 6.159,0.167 L 6.069,0.210 L 5.981,0.256 L 5.896,0.307 L 5.813,0.362 L 5.733,0.420 L 5.657,0.482 L 5.583,0.548 L 5.512,0.617 L 5.445,0.689 L 5.381,0.765 L 5.320,0.843 L 5.262,0.924 L 5.208,1.007 L 5.158,1.093 L 5.112,1.182 L 5.069,1.272 L 5.030,1.364 L 4.995,1.458 L 4.964,1.554 L 4.937,1.652 L 4.915,1.751 L 4.896,1.851 L 4.882,1.952 L 4.873,2.054 L 4.868,2.157 L 4.868,2.260 L 4.873,2.364 L 4.882,2.468 L 4.897,2.572 L 4.916,2.677 L 4.941,2.781 L 4.970,2.885 L 5.189,3.624 L 5.384,4.362 L 5.556,5.100 L 5.707,5.836 L 5.835,6.571 L 5.943,7.303 L 6.031,8.033 L 6.099,8.760 L 6.148,9.484 L 6.179,10.205 L 6.192,10.921 L 6.188,11.633 L 6.167,12.340 L 6.130,13.042 L 6.078,13.738 L 6.012,14.428 L 5.931,15.112 L 5.837,15.789 L 5.730,16.458 L 5.610,17.121 L 5.479,17.775 L 5.338,18.420 L 5.185,19.057 L 5.023,19.685 L 4.852,20.303 L 4.673,20.911 L 4.485,21.509 L 4.290,22.095 L 4.089,22.671 L 3.881,23.235 L 3.668,23.787 L 3.450,24.327 L 3.229,24.854 L 3.003,25.368 L 2.774,25.868 L 2.544,26.354 L 2.311,26.826 L 2.077,27.284 L 1.843,27.726 L 1.609,28.152 L 1.559,28.247 L 1.514,28.342 L 1.474,28.440 L 1.439,28.538 L 1.409,28.636 L 1.384,28.736 L 1.363,28.836 L 1.347,28.936 L 1.336,29.037 L 1.329,29.137 L 1.327,29.238 L 1.329,29.338 L 1.335,29.437 L 1.346,29.536 L 1.362,29.634 L 1.381,29.730 L 1.405,29.826 L 1.433,29.920 L 1.465,30.013 L 1.500,30.104 L 1.540,30.193 L 1.584,30.280 L 1.632,30.365 L 1.683,30.447 L 1.738,30.527 L 1.797,30.604 L 1.859,30.678 L 1.925,30.750 L 1.995,30.817 L 2.068,30.882 L 2.144,30.943 L 2.224,31.000 L 2.307,31.053 L 2.393,31.102 L 2.482,31.147 L 2.575,31.187 L 2.670,31.223 L 2.769,31.254 L 2.871,31.280 L 2.975,31.301 L 4.569,31.553 L 6.109,31.746 L 7.597,31.884 L 9.033,31.968 L 10.418,32.000 L 11.752,31.981 L 13.037,31.915 L 14.273,31.803 L 15.460,31.647 L 16.601,31.449 L 17.695,31.212 L 18.743,30.936 L 19.746,30.624 L 20.705,30.279 L 21.621,29.901 L 22.493,29.493 L 23.324,29.058 L 24.113,28.597 L 24.862,28.111 L 25.572,27.604 L 26.242,27.077 L 26.874,26.532 L 27.469,25.970 L 28.028,25.395 L 28.550,24.808 L 29.037,24.211 L 29.490,23.606 L 29.910,22.996 L 30.296,22.381 L 30.651,21.764 L 30.974,21.147 L 31.267,20.533 L 31.530,19.922 L 31.764,19.318 L 31.970,18.721 L 32.148,18.135 L 32.300,17.560 L 32.426,17.000 L 32.526,16.456 L 32.602,15.930 L 32.649,15.538 L 32.693,15.144 L 32.733,14.748 L 32.769,14.350 L 32.803,13.950 L 32.834,13.549 L 32.861,13.147 L 32.886,12.745 L 32.908,12.343 L 32.928,11.940 L 32.945,11.539 L 32.959,11.138 L 32.971,10.739 L 32.981,10.342 L 32.989,9.946 L 32.995,9.553 L 32.998,9.163 L 33.000,8.776 L 33.000,8.393 L 32.998,8.013 L 32.995,7.638 L 32.990,7.267 L 32.983,6.901 L 32.976,6.541 L 32.967,6.186 L 32.957,5.838 L 32.946,5.495 L 32.934,5.160 L 32.921,4.832 L 32.908,4.511 L 32.893,4.198 L 32.879,3.894 L 32.863,3.598 L 32.848,3.311 L 32.832,3.033 L 32.816,2.765 L 32.800,2.507 L 32.784,2.260 L 32.768,2.023 L 32.752,1.798 L 32.745,1.721 L 32.735,1.646 L 32.722,1.572 L 32.707,1.499 L 32.689,1.427 L 32.668,1.356 L 32.645,1.286 L 32.619,1.218 L 32.590,1.151 L 32.560,1.085 L 32.527,1.021 L 32.491,0.958 L 32.453,0.897 L 32.413,0.837 L 32.371,0.779 L 32.327,0.723 L 32.281,0.668 L 32.233,0.615 L 32.183,0.564 L 32.131,0.515 L 32.078,0.468 L 32.023,0.423 L 31.966,0.379 L 31.907,0.338 L 31.847,0.299 L 31.785,0.262 L 31.722,0.227 L 31.658,0.195 L 31.592,0.165 L 31.525,0.137 L 31.456,0.112 L 31.387,0.089 L 31.316,0.068 L 31.245,0.051 L 31.172,0.035 L 31.099,0.023 L 31.024,0.013 L 30.949,0.006 L 30.873,0.001 L 30.797,0.000 L 18.880,0.000 Z M 30.817,1.501 L 30.836,1.502 L 30.855,1.504 L 30.874,1.506 L 30.892,1.509 L 30.909,1.513 L 30.927,1.517 L 30.944,1.522 L 30.960,1.527 L 30.976,1.533 L 30.992,1.540 L 31.008,1.547 L 31.023,1.555 L 31.038,1.563 L 31.053,1.572 L 31.067,1.581 L 31.080,1.591 L 31.094,1.601 L 31.106,1.611 L 31.119,1.622 L 31.131,1.633 L 31.142,1.645 L 31.153,1.657 L 31.163,1.669 L 31.173,1.681 L 31.182,1.694 L 31.191,1.707 L 31.199,1.720 L 31.207,1.734 L 31.214,1.748 L 31.220,1.762 L 31.226,1.776 L 31.232,1.790 L 31.237,1.805 L 31.241,1.820 L 31.245,1.836 L 31.248,1.852 L 31.251,1.869 L 31.254,1.886 L 31.256,1.918 L 31.271,2.126 L 31.287,2.359 L 31.303,2.603 L 31.319,2.857 L 31.334,3.121 L 31.350,3.394 L 31.365,3.677 L 31.381,3.969 L 31.395,4.269 L 31.409,4.577 L 31.422,4.893 L 31.435,5.216 L 31.447,5.546 L 31.458,5.883 L 31.467,6.226 L 31.476,6.576 L 31.484,6.930 L 31.490,7.290 L 31.495,7.654 L 31.498,8.023 L 31.500,8.396 L 31.500,8.773 L 31.498,9.153 L 31.495,9.536 L 31.489,9.921 L 31.482,10.309 L 31.472,10.698 L 31.460,11.089 L 31.446,11.480 L 31.429,11.873 L 31.410,12.265 L 31.389,12.657 L 31.365,13.049 L 31.338,13.440 L 31.308,13.830 L 31.275,14.218 L 31.240,14.604 L 31.201,14.987 L 31.159,15.367 L 31.115,15.733 L 31.046,16.212 L 30.956,16.699 L 30.843,17.205 L 30.705,17.725 L 30.543,18.258 L 30.355,18.802 L 30.141,19.354 L 29.901,19.913 L 29.632,20.476 L 29.336,21.042 L 29.011,21.607 L 28.656,22.172 L 28.271,22.732 L 27.856,23.287 L 27.408,23.835 L 26.929,24.374 L 26.416,24.902 L 25.870,25.417 L 25.288,25.919 L 24.671,26.404 L 24.018,26.871 L 23.327,27.319 L 22.597,27.745 L 21.827,28.149 L 21.017,28.527 L 20.165,28.879 L 19.269,29.202 L 18.330,29.494 L 17.345,29.753 L 16.313,29.977 L 15.235,30.164 L 14.107,30.312 L 12.930,30.419 L 11.703,30.482 L 10.425,30.499 L 9.094,30.469 L 7.710,30.388 L 6.272,30.255 L 4.779,30.068 L 3.240,29.825 L 3.205,29.818 L 3.181,29.811 L 3.159,29.805 L 3.139,29.797 L 3.119,29.788 L 3.101,29.779 L 3.083,29.769 L 3.066,29.758 L 3.049,29.746 L 3.032,29.733 L 3.016,29.718 L 3.000,29.702 L 2.984,29.685 L 2.968,29.666 L 2.952,29.646 L 2.937,29.624 L 2.923,29.601 L 2.909,29.576 L 2.896,29.550 L 2.883,29.522 L 2.872,29.494 L 2.862,29.464 L 2.853,29.433 L 2.845,29.402 L 2.839,29.370 L 2.834,29.337 L 2.830,29.304 L 2.828,29.271 L 2.827,29.238 L 2.828,29.205 L 2.830,29.171 L 2.834,29.138 L 2.839,29.105 L 2.846,29.073 L 2.854,29.041 L 2.864,29.009 L 2.875,28.977 L 2.888,28.946 L 2.902,28.915 L 2.930,28.863 L 3.158,28.447 L 3.168,28.428 L 3.403,27.986 L 3.413,27.966 L 3.646,27.509 L 3.656,27.490 L 3.889,27.018 L 3.899,26.998 L 4.129,26.512 L 4.139,26.491 L 4.367,25.991 L 4.376,25.971 L 4.602,25.457 L 4.611,25.436 L 4.833,24.909 L 4.842,24.888 L 5.059,24.349 L 5.068,24.327 L 5.281,23.775 L 5.289,23.753 L 5.497,23.189 L 5.505,23.167 L 5.706,22.591 L 5.714,22.568 L 5.909,21.981 L 5.916,21.958 L 6.104,21.360 L 6.111,21.336 L 6.291,20.728 L 6.298,20.703 L 6.469,20.085 L 6.476,20.060 L 6.638,19.432 L 6.644,19.406 L 6.796,18.769 L 6.803,18.742 L 6.945,18.096 L 6.950,18.069 L 7.081,17.415 L 7.087,17.386 L 7.206,16.724 L 7.211,16.695 L 7.318,16.026 L 7.322,15.996 L 7.417,15.319 L 7.420,15.288 L 7.501,14.604 L 7.505,14.572 L 7.571,13.882 L 7.574,13.850 L 7.626,13.153 L 7.628,13.120 L 7.665,12.418 L 7.666,12.384 L 7.687,11.677 L 7.688,11.642 L 7.692,10.930 L 7.692,10.894 L 7.679,10.178 L 7.678,10.141 L 7.647,9.421 L 7.645,9.383 L 7.596,8.659 L 7.593,8.621 L 7.525,7.893 L 7.520,7.854 L 7.433,7.124 L 7.427,7.084 L 7.319,6.352 L 7.313,6.311 L 7.184,5.577 L 7.176,5.536 L 7.026,4.800 L 7.017,4.758 L 6.845,4.021 L 6.834,3.979 L 6.639,3.241 L 6.627,3.198 L 6.411,2.466 L 6.393,2.403 L 6.384,2.368 L 6.378,2.333 L 6.373,2.297 L 6.370,2.262 L 6.368,2.227 L 6.368,2.192 L 6.370,2.157 L 6.373,2.122 L 6.378,2.087 L 6.384,2.052 L 6.392,2.018 L 6.402,1.984 L 6.412,1.950 L 6.425,1.917 L 6.438,1.884 L 6.453,1.853 L 6.469,1.823 L 6.487,1.793 L 6.505,1.765 L 6.524,1.738 L 6.544,1.713 L 6.564,1.689 L 6.585,1.666 L 6.607,1.645 L 6.628,1.626 L 6.650,1.608 L 6.672,1.592 L 6.694,1.577 L 6.717,1.564 L 6.739,1.552 L 6.761,1.542 L 6.784,1.532 L 6.807,1.524 L 6.830,1.517 L 6.855,1.512 L 6.880,1.507 L 6.906,1.503 L 6.934,1.501 L 6.983,1.500 L 30.783,1.500 L 30.817,1.501 Z" fill="#1c212a"/>
  <path d="M18.9502 18H11.8613V6.09668H14.5425V15.8252H18.9502V18ZM27.7905 8.27979H24.3955V18H21.7061V8.27979H18.3276V6.09668H27.7905V8.27979Z" fill="#1C212A"/>
</svg>
