<?xml version='1.0' encoding='UTF-8'?>
<svg xmlns="http://www.w3.org/2000/svg" width="34" height="34" viewBox="0 0 34 34" fill="none">
  <path d="M 8.000,5.000 L 7.216,5.039 L 6.439,5.154 L 5.678,5.344 L 4.939,5.609 L 4.229,5.945 L 3.555,6.348 L 2.925,6.816 L 2.343,7.343 L 1.816,7.925 L 1.348,8.555 L 0.945,9.229 L 0.609,9.939 L 0.344,10.678 L 0.154,11.439 L 0.039,12.216 L 0.000,13.000 L 0.039,13.784 L 0.154,14.561 L 0.344,15.322 L 0.609,16.061 L 0.945,16.771 L 1.348,17.445 L 1.816,18.075 L 2.343,18.657 L 2.925,19.184 L 3.555,19.652 L 4.229,20.055 L 4.939,20.391 L 5.678,20.656 L 6.439,20.846 L 7.216,20.961 L 8.000,21.000 L 26.000,21.000 L 26.784,20.961 L 27.561,20.846 L 28.322,20.656 L 29.061,20.391 L 29.771,20.055 L 30.445,19.652 L 31.075,19.184 L 31.657,18.657 L 32.184,18.075 L 32.652,17.445 L 33.055,16.771 L 33.391,16.061 L 33.656,15.322 L 33.846,14.561 L 33.961,13.784 L 34.000,13.000 L 33.961,12.216 L 33.846,11.439 L 33.656,10.678 L 33.391,9.939 L 33.055,9.229 L 32.652,8.555 L 32.184,7.925 L 31.657,7.343 L 31.075,6.816 L 30.445,6.348 L 29.771,5.945 L 29.061,5.609 L 28.322,5.344 L 27.561,5.154 L 26.784,5.039 L 26.000,5.000 L 8.000,5.000 Z M 26.637,6.533 L 27.268,6.627 L 27.886,6.782 L 28.487,6.996 L 29.063,7.269 L 29.610,7.597 L 30.122,7.977 L 30.595,8.405 L 31.023,8.878 L 31.403,9.390 L 31.731,9.937 L 32.004,10.513 L 32.218,11.114 L 32.373,11.732 L 32.467,12.363 L 32.498,13.000 L 32.467,13.637 L 32.373,14.268 L 32.218,14.886 L 32.004,15.487 L 31.731,16.063 L 31.403,16.610 L 31.023,17.122 L 30.595,17.595 L 30.122,18.023 L 29.610,18.403 L 29.063,18.731 L 28.487,19.004 L 27.886,19.218 L 27.268,19.373 L 26.637,19.467 L 25.963,19.500 L 8.037,19.500 L 7.363,19.467 L 6.732,19.373 L 6.114,19.218 L 5.513,19.004 L 4.937,18.731 L 4.390,18.403 L 3.878,18.023 L 3.405,17.595 L 2.977,17.122 L 2.597,16.610 L 2.269,16.063 L 1.996,15.487 L 1.782,14.886 L 1.627,14.268 L 1.533,13.637 L 1.502,13.000 L 1.533,12.363 L 1.627,11.732 L 1.782,11.114 L 1.996,10.513 L 2.269,9.937 L 2.597,9.390 L 2.977,8.878 L 3.405,8.405 L 3.878,7.977 L 4.390,7.597 L 4.937,7.269 L 5.513,6.996 L 6.114,6.782 L 6.732,6.627 L 7.363,6.533 L 8.037,6.500 L 25.963,6.500 L 26.637,6.533 Z" fill="#1c212a"/>
  <path d="M 9.000,29.000 L 25.000,29.000 L 25.000,21.000 L 9.000,21.000 L 9.000,29.000 Z M 23.500,22.500 L 23.500,27.500 L 10.500,27.500 L 10.500,22.500 L 23.500,22.500 Z" fill="#1c212a"/>
  <path d="M21.4502 19.5H14.3613V7.59668H17.0425V17.3252H21.4502V19.5Z" fill="#1C212A"/>
</svg>
