<?xml version='1.0' encoding='UTF-8'?>
<svg xmlns="http://www.w3.org/2000/svg" width="32" height="32" viewBox="0 0 32 32" fill="none">
  <path d="M 29.576900000000002,16.0 A 11.0769,11.0769 0 1,0 7.4231,16.0 A 11.0769,11.0769 0 1,0 29.576900000000002,16.0 Z M 28.6538,16.0 A 10.1538,10.1538 0 1,1 8.3462,16.0 A 10.1538,10.1538 0 1,1 28.6538,16.0 Z" fill="#1c212a"/>
  <path d="M22.9502 22H15.8613V10.0967H18.5425V19.8252H22.9502V22Z" fill="#1C212A"/>
  <path d="M6.69186 9.54674C4.195 14.4425 4.18463 17.8224 6.71188 23.3641C6.76297 23.4762 6.5969 23.5748 6.52589 23.4742L1.29336 16.0614C1.26768 16.025 1.26915 15.9761 1.29697 15.9413L6.50915 9.42607C6.58571 9.33036 6.74754 9.43755 6.69186 9.54674Z" fill="#D6E1F6"/>
</svg>
