<?xml version='1.0' encoding='UTF-8'?>
<svg xmlns="http://www.w3.org/2000/svg" width="32" height="32" viewBox="0 0 32 32" fill="none">
  <path d="M 24.076900000000002,16.0 A 11.0769,11.0769 0 1,0 1.9230999999999998,16.0 A 11.0769,11.0769 0 1,0 24.076900000000002,16.0 Z M 23.1538,16.0 A 10.1538,10.1538 0 1,1 2.8461999999999996,16.0 A 10.1538,10.1538 0 1,1 23.1538,16.0 Z" fill="#1c212a"/>
  <path d="M17.4502 22H10.3613V10.0967H13.0425V19.8252H17.4502V22Z" fill="#1C212A"/>
  <path d="M24.8081 9.54674C27.305 14.4425 27.3154 17.8224 24.7881 23.3641C24.737 23.4762 24.9031 23.5748 24.9741 23.4742L30.2066 16.0614C30.2323 16.025 30.2309 15.9761 30.203 15.9413L24.9909 9.42607C24.9143 9.33036 24.7525 9.43755 24.8081 9.54674Z" fill="#D6E1F6"/>
</svg>
