<?xml version="1.0" encoding="UTF-8"?>
<svg xmlns="http://www.w3.org/2000/svg" width="35" height="32" viewBox="0 0 35 32" fill="none">
  <g transform="translate(-0.7677,0)">
    <path d="M 29.576900000000002,16.0 A 11.0769,11.0769 0 1,0 7.4231,16.0 A 11.0769,11.0769 0 1,0 29.576900000000002,16.0 Z M 28.6538,16.0 A 10.1538,10.1538 0 1,1 8.3462,16.0 A 10.1538,10.1538 0 1,1 28.6538,16.0 Z" fill="#1c212a"/>
    <path d="M24.3472 22H21.2676L19.4165 18.937C19.2782 18.7046 19.1453 18.4971 19.0181 18.3145C18.8908 18.1318 18.7607 17.9769 18.6279 17.8496C18.5007 17.7168 18.3651 17.6172 18.2212 17.5508C18.0828 17.4788 17.9307 17.4429 17.7646 17.4429H17.0425V22H14.3613V10.0967H18.6113C21.5 10.0967 22.9443 11.1758 22.9443 13.334C22.9443 13.749 22.8807 14.1336 22.7534 14.4878C22.6261 14.8364 22.4463 15.1519 22.2139 15.4341C21.9814 15.7163 21.6992 15.9598 21.3672 16.1646C21.0407 16.3693 20.6755 16.5298 20.2715 16.646V16.6792C20.4486 16.7345 20.6201 16.8258 20.7861 16.9531C20.9521 17.0749 21.1126 17.2188 21.2676 17.3848C21.4225 17.5508 21.5692 17.7306 21.7075 17.9243C21.8514 18.1125 21.9814 18.2979 22.0977 18.4805L24.3472 22ZM17.0425 12.1055V15.4175H18.2046C18.7801 15.4175 19.2422 15.2515 19.5908 14.9194C19.945 14.5819 20.1221 14.1641 20.1221 13.666C20.1221 12.6257 19.4995 12.1055 18.2544 12.1055H17.0425Z" fill="#1C212A"/>
    <path d="M6.69186 9.54674C4.195 14.4425 4.18463 17.8224 6.71188 23.3641C6.76297 23.4762 6.5969 23.5748 6.52589 23.4742L1.29336 16.0614C1.26768 16.025 1.26915 15.9761 1.29697 15.9413L6.50915 9.42607C6.58571 9.33036 6.74754 9.43755 6.69186 9.54674Z" fill="#D6E1F6"/>
  </g>
  <g transform="translate(4.7323,0)">
    <path d="M24.8081 9.54674C27.305 14.4425 27.3154 17.8224 24.7881 23.3641C24.737 23.4762 24.9031 23.5748 24.9741 23.4742L30.2066 16.0614C30.2323 16.025 30.2309 15.9761 30.203 15.9413L24.9909 9.42607C24.9143 9.33036 24.7525 9.43755 24.8081 9.54674Z" fill="#D6E1F6"/>
  </g>
</svg>
