<?xml version='1.0' encoding='UTF-8'?>
<svg xmlns="http://www.w3.org/2000/svg" width="32" height="32" viewBox="0 0 32 32" fill="none">
  <path d="M 24.076900000000002,16.0 A 11.0769,11.0769 0 1,0 1.9230999999999998,16.0 A 11.0769,11.0769 0 1,0 24.076900000000002,16.0 Z M 23.1538,16.0 A 10.1538,10.1538 0 1,1 2.8461999999999996,16.0 A 10.1538,10.1538 0 1,1 23.1538,16.0 Z" fill="#1c212a"/>
  <path d="M18.8472 22H15.7676L13.9165 18.937C13.7782 18.7046 13.6453 18.4971 13.5181 18.3145C13.3908 18.1318 13.2607 17.9769 13.1279 17.8496C13.0007 17.7168 12.8651 17.6172 12.7212 17.5508C12.5828 17.4788 12.4307 17.4429 12.2646 17.4429H11.5425V22H8.86133V10.0967H13.1113C16 10.0967 17.4443 11.1758 17.4443 13.334C17.4443 13.749 17.3807 14.1336 17.2534 14.4878C17.1261 14.8364 16.9463 15.1519 16.7139 15.4341C16.4814 15.7163 16.1992 15.9598 15.8672 16.1646C15.5407 16.3693 15.1755 16.5298 14.7715 16.646V16.6792C14.9486 16.7345 15.1201 16.8258 15.2861 16.9531C15.4521 17.0749 15.6126 17.2188 15.7676 17.3848C15.9225 17.5508 16.0692 17.7306 16.2075 17.9243C16.3514 18.1125 16.4814 18.2979 16.5977 18.4805L18.8472 22ZM11.5425 12.1055V15.4175H12.7046C13.2801 15.4175 13.7422 15.2515 14.0908 14.9194C14.445 14.5819 14.6221 14.1641 14.6221 13.666C14.6221 12.6257 13.9995 12.1055 12.7544 12.1055H11.5425Z" fill="#1C212A"/>
  <path d="M24.8081 9.54674C27.305 14.4425 27.3154 17.8224 24.7881 23.3641C24.737 23.4762 24.9031 23.5748 24.9741 23.4742L30.2066 16.0614C30.2323 16.025 30.2309 15.9761 30.203 15.9413L24.9909 9.42607C24.9143 9.33036 24.7525 9.43755 24.8081 9.54674Z" fill="#D6E1F6"/>
</svg>
