<?xml version="1.0" encoding="UTF-8"?>
<svg xmlns="http://www.w3.org/2000/svg" width="32" height="35" viewBox="0 0 32 35" fill="none">
  <g transform="translate(0,3.4823)">
    <path d="M 27.076900000000002,14.0 A 11.0769,11.0769 0 1,0 4.9231,14.0 A 11.0769,11.0769 0 1,0 27.076900000000002,14.0 Z M 26.1538,14.0 A 10.1538,10.1538 0 1,1 5.8462,14.0 A 10.1538,10.1538 0 1,1 26.1538,14.0 Z" fill="#1c212a"/>
    <path d="M21.8472 20H18.7676L16.9165 16.937C16.7782 16.7046 16.6453 16.4971 16.5181 16.3145C16.3908 16.1318 16.2607 15.9769 16.1279 15.8496C16.0007 15.7168 15.8651 15.6172 15.7212 15.5508C15.5828 15.4788 15.4307 15.4429 15.2646 15.4429H14.5425V20H11.8613V8.09668H16.1113C19 8.09668 20.4443 9.17578 20.4443 11.334C20.4443 11.749 20.3807 12.1336 20.2534 12.4878C20.1261 12.8364 19.9463 13.1519 19.7139 13.4341C19.4814 13.7163 19.1992 13.9598 18.8672 14.1646C18.5407 14.3693 18.1755 14.5298 17.7715 14.646V14.6792C17.9486 14.7345 18.1201 14.8258 18.2861 14.9531C18.4521 15.0749 18.6126 15.2188 18.7676 15.3848C18.9225 15.5508 19.0692 15.7306 19.2075 15.9243C19.3514 16.1125 19.4814 16.2979 19.5977 16.4805L21.8472 20ZM14.5425 10.1055V13.4175H15.7046C16.2801 13.4175 16.7422 13.2515 17.0908 12.9194C17.445 12.5819 17.6221 12.1641 17.6221 11.666C17.6221 10.6257 16.9995 10.1055 15.7544 10.1055H14.5425Z" fill="#1C212A"/>
    <path d="M22.9533 25.5581C18.0575 28.055 14.6776 28.0654 9.13587 25.5381C9.02383 25.487 8.92522 25.6531 9.02582 25.7241L16.4386 30.9566C16.475 30.9823 16.5239 30.9809 16.5587 30.953L23.0739 25.7409C23.1696 25.6643 23.0624 25.5025 22.9533 25.5581Z" fill="#D6E1F6"/>
  </g>
  <g transform="translate(0,-1.5177)">
    <path d="M22.9533 7.44186C18.0575 4.945 14.6776 4.93463 9.13587 7.46188C9.02383 7.51297 8.92522 7.3469 9.02582 7.27589L16.4386 2.04336C16.475 2.01768 16.5239 2.01915 16.5587 2.04697L23.0739 7.25915C23.1696 7.33571 23.0624 7.49754 22.9533 7.44186Z" fill="#D6E1F6"/>
  </g>
</svg>
