<?xml version="1.0" encoding="UTF-8"?>
<svg xmlns="http://www.w3.org/2000/svg" width="35" height="32" viewBox="0 0 35 32" fill="none">
  <g transform="translate(-0.7677,0)">
    <path d="M 29.576900000000002,16.0 A 11.0769,11.0769 0 1,0 7.4231,16.0 A 11.0769,11.0769 0 1,0 29.576900000000002,16.0 Z M 28.6538,16.0 A 10.1538,10.1538 0 1,1 8.3462,16.0 A 10.1538,10.1538 0 1,1 28.6538,16.0 Z" fill="#1c212a"/>
    <path d="M22.9502 22H15.8613V10.0967H18.5425V19.8252H22.9502V22Z" fill="#1C212A"/>
    <path d="M6.69186 9.54674C4.195 14.4425 4.18463 17.8224 6.71188 23.3641C6.76297 23.4762 6.5969 23.5748 6.52589 23.4742L1.29336 16.0614C1.26768 16.025 1.26915 15.9761 1.29697 15.9413L6.50915 9.42607C6.58571 9.33036 6.74754 9.43755 6.69186 9.54674Z" fill="#D6E1F6"/>
  </g>
  <g transform="translate(4.7323,0)">
    <path d="M24.8081 9.54674C27.305 14.4425 27.3154 17.8224 24.7881 23.3641C24.737 23.4762 24.9031 23.5748 24.9741 23.4742L30.2066 16.0614C30.2323 16.025 30.2309 15.9761 30.203 15.9413L24.9909 9.42607C24.9143 9.33036 24.7525 9.43755 24.8081 9.54674Z" fill="#D6E1F6"/>
  </g>
</svg>
