<?xml version='1.0' encoding='UTF-8'?>
<svg xmlns="http://www.w3.org/2000/svg" width="32" height="32" viewBox="0 0 32 32" fill="none">
  <path d="M 27.076900000000002,19.0 A 11.0769,11.0769 0 1,0 4.9231,19.0 A 11.0769,11.0769 0 1,0 27.076900000000002,19.0 Z M 26.1538,19.0 A 10.1538,10.1538 0 1,1 5.8462,19.0 A 10.1538,10.1538 0 1,1 26.1538,19.0 Z" fill="#1c212a"/>
  <path d="M20.4502 25H13.3613V13.0967H16.0425V22.8252H20.4502V25Z" fill="#1C212A"/>
  <path d="M22.9533 7.44186C18.0575 4.945 14.6776 4.93463 9.13587 7.46188C9.02383 7.51297 8.92522 7.3469 9.02582 7.27589L16.4386 2.04336C16.475 2.01768 16.5239 2.01915 16.5587 2.04697L23.0739 7.25915C23.1696 7.33571 23.0624 7.49754 22.9533 7.44186Z" fill="#D6E1F6"/>
</svg>
