<?xml version='1.0' encoding='UTF-8'?>
<svg xmlns="http://www.w3.org/2000/svg" width="39" height="22" viewBox="0 0 39 22" fill="none">
  <path d="M 38.437,9.171 L 38.433,9.118 L 38.428,9.065 L 38.421,9.013 L 38.414,8.960 L 38.406,8.908 L 38.396,8.856 L 38.385,8.804 L 38.373,8.753 L 38.360,8.702 L 38.346,8.652 L 38.331,8.602 L 38.315,8.552 L 38.298,8.503 L 38.280,8.454 L 38.260,8.405 L 38.240,8.358 L 38.218,8.310 L 38.196,8.264 L 38.172,8.217 L 38.147,8.172 L 38.122,8.127 L 38.095,8.082 L 38.067,8.038 L 38.038,7.995 L 38.009,7.953 L 37.978,7.911 L 37.946,7.870 L 37.913,7.829 L 37.879,7.790 L 37.845,7.751 L 37.809,7.713 L 37.772,7.676 L 37.734,7.640 L 37.696,7.604 L 37.656,7.570 L 37.615,7.536 L 37.573,7.503 L 37.531,7.471 L 37.487,7.441 L 37.140,7.206 L 36.770,6.965 L 36.378,6.719 L 35.963,6.468 L 35.526,6.213 L 35.068,5.955 L 34.588,5.694 L 34.087,5.431 L 33.566,5.167 L 33.024,4.902 L 32.461,4.637 L 31.879,4.373 L 31.277,4.110 L 30.656,3.850 L 30.016,3.592 L 29.357,3.337 L 28.679,3.087 L 27.983,2.842 L 27.269,2.602 L 26.538,2.368 L 25.789,2.141 L 25.024,1.922 L 24.241,1.711 L 23.442,1.509 L 22.627,1.317 L 21.796,1.134 L 20.950,0.963 L 20.088,0.804 L 19.211,0.657 L 18.319,0.522 L 17.413,0.402 L 16.493,0.296 L 15.559,0.205 L 14.611,0.130 L 13.650,0.071 L 12.676,0.030 L 11.689,0.006 L 10.690,0.000 L 9.679,0.014 L 8.656,0.048 L 8.620,0.050 L 8.585,0.052 L 8.549,0.055 L 8.513,0.059 L 8.478,0.063 L 8.443,0.067 L 8.407,0.072 L 8.372,0.078 L 8.337,0.084 L 8.302,0.091 L 8.267,0.098 L 8.233,0.105 L 8.198,0.114 L 8.163,0.122 L 8.129,0.132 L 8.095,0.141 L 8.061,0.152 L 8.027,0.162 L 7.993,0.174 L 7.960,0.185 L 7.927,0.198 L 7.893,0.210 L 7.860,0.224 L 7.828,0.237 L 7.795,0.252 L 7.763,0.266 L 7.730,0.281 L 7.699,0.297 L 7.667,0.313 L 7.635,0.330 L 7.604,0.347 L 7.573,0.364 L 7.542,0.382 L 7.512,0.401 L 7.481,0.420 L 7.451,0.439 L 7.422,0.459 L 7.392,0.479 L 7.363,0.500 L 7.334,0.521 L 4.308,2.767 L 1.281,5.013 L 1.223,5.058 L 1.167,5.103 L 1.113,5.150 L 1.060,5.199 L 1.009,5.248 L 0.959,5.299 L 0.911,5.352 L 0.865,5.405 L 0.821,5.460 L 0.778,5.516 L 0.736,5.573 L 0.697,5.631 L 0.659,5.690 L 0.623,5.750 L 0.589,5.811 L 0.557,5.873 L 0.526,5.936 L 0.497,5.999 L 0.470,6.064 L 0.445,6.129 L 0.422,6.195 L 0.401,6.261 L 0.381,6.328 L 0.363,6.396 L 0.348,6.464 L 0.334,6.532 L 0.322,6.601 L 0.313,6.671 L 0.305,6.741 L 0.299,6.811 L 0.295,6.881 L 0.294,6.952 L 0.294,7.022 L 0.296,7.093 L 0.301,7.164 L 0.307,7.235 L 0.316,7.307 L 0.327,7.378 L 0.340,7.449 L 0.355,7.520 L 1.789,13.809 L 3.223,20.099 L 3.243,20.182 L 3.266,20.263 L 3.292,20.344 L 3.320,20.422 L 3.351,20.500 L 3.385,20.576 L 3.420,20.651 L 3.459,20.724 L 3.499,20.795 L 3.542,20.865 L 3.587,20.933 L 3.634,21.000 L 3.683,21.065 L 3.734,21.128 L 3.788,21.189 L 3.843,21.249 L 3.900,21.306 L 3.959,21.362 L 4.019,21.415 L 4.082,21.467 L 4.146,21.516 L 4.212,21.563 L 4.279,21.608 L 4.347,21.651 L 4.418,21.692 L 4.489,21.730 L 4.562,21.766 L 4.636,21.800 L 4.712,21.831 L 4.788,21.859 L 4.866,21.885 L 4.945,21.909 L 5.024,21.930 L 5.105,21.948 L 5.187,21.964 L 5.269,21.977 L 5.352,21.987 L 5.436,21.994 L 5.521,21.999 L 5.606,22.000 L 21.026,22.000 L 36.446,22.000 L 36.550,21.998 L 36.653,21.991 L 36.754,21.981 L 36.854,21.966 L 36.953,21.947 L 37.051,21.925 L 37.146,21.898 L 37.240,21.868 L 37.333,21.834 L 37.423,21.797 L 37.512,21.756 L 37.599,21.712 L 37.684,21.664 L 37.766,21.613 L 37.847,21.559 L 37.925,21.502 L 38.000,21.442 L 38.073,21.380 L 38.144,21.314 L 38.212,21.246 L 38.277,21.175 L 38.340,21.101 L 38.399,21.026 L 38.456,20.947 L 38.509,20.867 L 38.560,20.784 L 38.607,20.700 L 38.651,20.613 L 38.691,20.524 L 38.728,20.434 L 38.761,20.342 L 38.791,20.248 L 38.817,20.153 L 38.840,20.056 L 38.858,19.957 L 38.872,19.858 L 38.883,19.757 L 38.889,19.655 L 38.891,19.552 L 38.888,19.448 L 38.664,14.337 L 38.440,9.225 L 38.437,9.171 Z M 37.165,14.402 L 37.389,19.499 L 37.390,19.556 L 37.390,19.596 L 37.387,19.636 L 37.383,19.674 L 37.378,19.713 L 37.371,19.750 L 37.362,19.787 L 37.352,19.823 L 37.341,19.859 L 37.328,19.894 L 37.314,19.929 L 37.299,19.963 L 37.282,19.996 L 37.263,20.029 L 37.244,20.061 L 37.223,20.092 L 37.201,20.123 L 37.178,20.152 L 37.154,20.181 L 37.128,20.208 L 37.102,20.235 L 37.074,20.261 L 37.046,20.285 L 37.016,20.308 L 36.986,20.331 L 36.955,20.351 L 36.923,20.371 L 36.890,20.389 L 36.857,20.406 L 36.823,20.422 L 36.789,20.436 L 36.753,20.449 L 36.717,20.461 L 36.681,20.471 L 36.644,20.479 L 36.606,20.486 L 36.567,20.492 L 36.528,20.496 L 36.487,20.499 L 36.430,20.500 L 5.619,20.500 L 5.573,20.499 L 5.540,20.497 L 5.507,20.495 L 5.475,20.491 L 5.443,20.486 L 5.412,20.480 L 5.381,20.473 L 5.350,20.465 L 5.320,20.456 L 5.290,20.446 L 5.261,20.435 L 5.232,20.423 L 5.203,20.410 L 5.175,20.396 L 5.148,20.381 L 5.120,20.365 L 5.094,20.349 L 5.068,20.331 L 5.042,20.313 L 5.017,20.294 L 4.993,20.274 L 4.970,20.253 L 4.947,20.231 L 4.925,20.209 L 4.903,20.186 L 4.883,20.163 L 4.863,20.138 L 4.844,20.113 L 4.826,20.088 L 4.808,20.061 L 4.792,20.034 L 4.776,20.007 L 4.762,19.979 L 4.748,19.950 L 4.735,19.921 L 4.723,19.891 L 4.712,19.861 L 4.703,19.830 L 4.694,19.798 L 4.682,19.753 L 3.251,13.476 L 1.820,7.197 L 1.811,7.159 L 1.806,7.131 L 1.802,7.104 L 1.799,7.076 L 1.796,7.049 L 1.795,7.021 L 1.794,6.994 L 1.794,6.967 L 1.794,6.940 L 1.796,6.912 L 1.798,6.885 L 1.801,6.859 L 1.805,6.832 L 1.809,6.805 L 1.815,6.779 L 1.821,6.752 L 1.827,6.726 L 1.835,6.700 L 1.843,6.674 L 1.852,6.649 L 1.862,6.624 L 1.872,6.599 L 1.884,6.574 L 1.895,6.550 L 1.908,6.526 L 1.921,6.502 L 1.935,6.479 L 1.950,6.456 L 1.965,6.434 L 1.981,6.412 L 1.997,6.391 L 2.014,6.369 L 2.032,6.349 L 2.051,6.329 L 2.070,6.309 L 2.090,6.290 L 2.110,6.271 L 2.131,6.253 L 2.153,6.235 L 2.184,6.211 L 5.202,3.972 L 8.224,1.729 L 8.239,1.717 L 8.250,1.709 L 8.262,1.701 L 8.273,1.694 L 8.285,1.686 L 8.296,1.679 L 8.308,1.672 L 8.320,1.665 L 8.332,1.658 L 8.344,1.652 L 8.356,1.646 L 8.368,1.639 L 8.380,1.633 L 8.392,1.628 L 8.405,1.622 L 8.417,1.617 L 8.430,1.612 L 8.442,1.607 L 8.454,1.602 L 8.467,1.597 L 8.480,1.593 L 8.492,1.589 L 8.505,1.584 L 8.517,1.581 L 8.530,1.577 L 8.543,1.574 L 8.555,1.570 L 8.568,1.567 L 8.581,1.565 L 8.593,1.562 L 8.606,1.560 L 8.619,1.557 L 8.632,1.555 L 8.644,1.554 L 8.657,1.552 L 8.670,1.551 L 8.682,1.549 L 8.695,1.548 L 8.707,1.547 L 8.719,1.547 L 9.714,1.514 L 10.697,1.501 L 11.667,1.506 L 12.626,1.529 L 13.572,1.569 L 14.506,1.626 L 15.427,1.699 L 16.334,1.788 L 17.229,1.891 L 18.109,2.008 L 18.975,2.138 L 19.827,2.281 L 20.665,2.436 L 21.487,2.602 L 22.294,2.779 L 23.086,2.966 L 23.862,3.162 L 24.622,3.367 L 25.366,3.580 L 26.092,3.800 L 26.802,4.027 L 27.495,4.260 L 28.170,4.498 L 28.827,4.741 L 29.465,4.987 L 30.086,5.237 L 30.687,5.489 L 31.269,5.743 L 31.832,5.999 L 32.375,6.254 L 32.898,6.510 L 33.400,6.764 L 33.881,7.017 L 34.341,7.267 L 34.780,7.515 L 35.197,7.758 L 35.591,7.996 L 35.963,8.229 L 36.311,8.456 L 36.634,8.674 L 36.649,8.685 L 36.661,8.694 L 36.673,8.704 L 36.685,8.713 L 36.697,8.723 L 36.708,8.734 L 36.719,8.744 L 36.730,8.755 L 36.741,8.767 L 36.751,8.778 L 36.761,8.790 L 36.771,8.803 L 36.781,8.815 L 36.791,8.828 L 36.800,8.842 L 36.809,8.856 L 36.818,8.870 L 36.827,8.884 L 36.836,8.899 L 36.844,8.915 L 36.852,8.930 L 36.860,8.946 L 36.867,8.963 L 36.874,8.979 L 36.881,8.997 L 36.888,9.014 L 36.894,9.032 L 36.900,9.050 L 36.905,9.069 L 36.911,9.087 L 36.915,9.107 L 36.920,9.126 L 36.924,9.146 L 36.928,9.166 L 36.931,9.186 L 36.934,9.206 L 36.936,9.227 L 36.938,9.248 L 36.940,9.269 L 36.942,9.298 L 37.165,14.402 Z" fill="#1c212a"/>
  <path d="M17.9782 18H14.8986L13.0475 14.937C12.9092 14.7046 12.7763 14.4971 12.6491 14.3145C12.5218 14.1318 12.3917 13.9769 12.2589 13.8496C12.1317 13.7168 11.9961 13.6172 11.8522 13.5508C11.7138 13.4788 11.5617 13.4429 11.3957 13.4429H10.6735V18H7.99233V6.09668H12.2423C15.131 6.09668 16.5753 7.17578 16.5753 9.33398C16.5753 9.74902 16.5117 10.1336 16.3844 10.4878C16.2571 10.8364 16.0773 11.1519 15.8449 11.4341C15.6124 11.7163 15.3302 11.9598 14.9982 12.1646C14.6717 12.3693 14.3065 12.5298 13.9025 12.646V12.6792C14.0796 12.7345 14.2511 12.8258 14.4171 12.9531C14.5832 13.0749 14.7436 13.2188 14.8986 13.3848C15.0535 13.5508 15.2002 13.7306 15.3385 13.9243C15.4824 14.1125 15.6124 14.2979 15.7287 14.4805L17.9782 18ZM10.6735 8.10547V11.4175H11.8356C12.4111 11.4175 12.8732 11.2515 13.2218 10.9194C13.576 10.5819 13.7531 10.1641 13.7531 9.66602C13.7531 8.62565 13.1305 8.10547 11.8854 8.10547H10.6735ZM19.0988 18V6.09668H23.4318C24.7599 6.09668 25.7809 6.34017 26.4948 6.82715C27.2086 7.31413 27.5656 8.00033 27.5656 8.88574C27.5656 9.52767 27.347 10.0894 26.9098 10.5708C26.4782 11.0522 25.9248 11.387 25.2497 11.5752V11.6084C26.0963 11.7135 26.7715 12.0262 27.275 12.5464C27.7842 13.0666 28.0387 13.7002 28.0387 14.4473C28.0387 15.5374 27.6486 16.4035 26.8683 17.0454C26.088 17.6818 25.0228 18 23.6725 18H19.0988ZM21.7799 8.07227V10.8945H22.9586C23.512 10.8945 23.9464 10.7617 24.2619 10.4961C24.5828 10.2249 24.7433 9.85417 24.7433 9.38379C24.7433 8.50944 24.0903 8.07227 22.7843 8.07227H21.7799ZM21.7799 12.8867V16.0244H23.2326C23.8524 16.0244 24.3366 15.8805 24.6852 15.5928C25.0394 15.305 25.2165 14.9121 25.2165 14.4141C25.2165 13.9382 25.0421 13.5646 24.6935 13.2935C24.3504 13.0223 23.869 12.8867 23.2492 12.8867H21.7799Z" fill="#1C212A"/>
</svg>
