<?xml version='1.0' encoding='UTF-8'?>
<svg xmlns="http://www.w3.org/2000/svg" width="33" height="32" viewBox="0 0 33 32" fill="none">
  <path d="M 2.127,0.001 L 2.051,0.006 L 1.976,0.013 L 1.901,0.023 L 1.828,0.035 L 1.755,0.051 L 1.684,0.068 L 1.613,0.089 L 1.544,0.112 L 1.475,0.137 L 1.408,0.165 L 1.342,0.195 L 1.278,0.227 L 1.215,0.262 L 1.153,0.299 L 1.093,0.338 L 1.034,0.379 L 0.977,0.423 L 0.922,0.468 L 0.869,0.515 L 0.817,0.564 L 0.767,0.615 L 0.719,0.668 L 0.673,0.723 L 0.629,0.779 L 0.587,0.837 L 0.547,0.897 L 0.509,0.958 L 0.473,1.021 L 0.440,1.085 L 0.410,1.151 L 0.381,1.218 L 0.355,1.286 L 0.332,1.356 L 0.311,1.427 L 0.293,1.499 L 0.278,1.572 L 0.265,1.646 L 0.255,1.721 L 0.248,1.798 L 0.232,2.023 L 0.216,2.260 L 0.200,2.507 L 0.184,2.765 L 0.168,3.033 L 0.152,3.311 L 0.137,3.598 L 0.121,3.894 L 0.107,4.198 L 0.092,4.511 L 0.079,4.832 L 0.066,5.160 L 0.054,5.495 L 0.043,5.838 L 0.033,6.186 L 0.024,6.541 L 0.017,6.901 L 0.010,7.267 L 0.005,7.638 L 0.002,8.013 L 0.000,8.393 L 0.000,8.776 L 0.002,9.163 L 0.006,9.553 L 0.011,9.946 L 0.019,10.342 L 0.029,10.739 L 0.041,11.138 L 0.055,11.539 L 0.072,11.940 L 0.092,12.343 L 0.114,12.745 L 0.139,13.147 L 0.166,13.549 L 0.197,13.950 L 0.231,14.350 L 0.267,14.748 L 0.307,15.144 L 0.351,15.538 L 0.398,15.930 L 0.474,16.456 L 0.574,17.000 L 0.700,17.560 L 0.852,18.135 L 1.030,18.721 L 1.236,19.318 L 1.470,19.922 L 1.733,20.533 L 2.026,21.147 L 2.349,21.764 L 2.704,22.381 L 3.090,22.996 L 3.510,23.606 L 3.963,24.211 L 4.450,24.808 L 4.972,25.395 L 5.531,25.970 L 6.126,26.532 L 6.758,27.077 L 7.428,27.604 L 8.138,28.111 L 8.887,28.597 L 9.676,29.058 L 10.507,29.493 L 11.379,29.901 L 12.295,30.279 L 13.254,30.624 L 14.257,30.936 L 15.305,31.212 L 16.399,31.449 L 17.540,31.647 L 18.727,31.803 L 19.963,31.915 L 21.248,31.981 L 22.582,32.000 L 23.967,31.968 L 25.403,31.884 L 26.891,31.746 L 28.431,31.553 L 30.025,31.301 L 30.129,31.280 L 30.231,31.254 L 30.330,31.223 L 30.425,31.187 L 30.518,31.147 L 30.607,31.102 L 30.693,31.053 L 30.776,31.000 L 30.856,30.943 L 30.932,30.882 L 31.005,30.817 L 31.075,30.750 L 31.141,30.678 L 31.203,30.604 L 31.262,30.527 L 31.317,30.447 L 31.368,30.365 L 31.416,30.280 L 31.460,30.193 L 31.500,30.104 L 31.535,30.013 L 31.567,29.920 L 31.595,29.826 L 31.619,29.730 L 31.638,29.634 L 31.654,29.536 L 31.665,29.437 L 31.671,29.338 L 31.673,29.238 L 31.671,29.137 L 31.664,29.037 L 31.653,28.936 L 31.637,28.836 L 31.616,28.736 L 31.591,28.636 L 31.561,28.538 L 31.526,28.440 L 31.486,28.342 L 31.441,28.247 L 31.391,28.152 L 31.157,27.726 L 30.923,27.284 L 30.689,26.826 L 30.456,26.354 L 30.226,25.868 L 29.997,25.368 L 29.771,24.854 L 29.550,24.327 L 29.332,23.787 L 29.119,23.235 L 28.911,22.671 L 28.710,22.095 L 28.515,21.509 L 28.327,20.911 L 28.148,20.303 L 27.977,19.685 L 27.815,19.057 L 27.662,18.420 L 27.521,17.775 L 27.390,17.121 L 27.270,16.458 L 27.163,15.789 L 27.069,15.112 L 26.988,14.428 L 26.922,13.738 L 26.870,13.042 L 26.833,12.340 L 26.812,11.633 L 26.808,10.921 L 26.821,10.205 L 26.852,9.484 L 26.901,8.760 L 26.969,8.033 L 27.057,7.303 L 27.165,6.571 L 27.293,5.836 L 27.444,5.100 L 27.616,4.362 L 27.811,3.624 L 28.030,2.885 L 28.059,2.781 L 28.084,2.677 L 28.103,2.572 L 28.118,2.468 L 28.127,2.364 L 28.132,2.260 L 28.132,2.157 L 28.127,2.054 L 28.117,1.952 L 28.104,1.851 L 28.085,1.751 L 28.063,1.652 L 28.036,1.554 L 28.005,1.458 L 27.970,1.364 L 27.931,1.272 L 27.888,1.182 L 27.842,1.093 L 27.792,1.007 L 27.738,0.924 L 27.680,0.843 L 27.619,0.765 L 27.555,0.689 L 27.488,0.617 L 27.417,0.548 L 27.343,0.482 L 27.267,0.420 L 27.187,0.362 L 27.104,0.307 L 27.019,0.256 L 26.931,0.210 L 26.841,0.167 L 26.748,0.129 L 26.653,0.096 L 26.555,0.067 L 26.455,0.043 L 26.353,0.025 L 26.250,0.011 L 26.144,0.003 L 26.036,0.000 L 14.120,0.000 L 2.203,0.000 L 2.127,0.001 Z M 26.016,1.500 L 26.066,1.501 L 26.094,1.503 L 26.120,1.507 L 26.145,1.512 L 26.170,1.517 L 26.193,1.524 L 26.216,1.532 L 26.239,1.542 L 26.261,1.552 L 26.283,1.564 L 26.306,1.577 L 26.328,1.592 L 26.350,1.608 L 26.372,1.626 L 26.393,1.645 L 26.415,1.666 L 26.436,1.689 L 26.456,1.713 L 26.476,1.738 L 26.495,1.765 L 26.513,1.793 L 26.531,1.823 L 26.547,1.853 L 26.562,1.884 L 26.575,1.917 L 26.588,1.950 L 26.598,1.984 L 26.608,2.018 L 26.616,2.052 L 26.622,2.087 L 26.627,2.122 L 26.630,2.157 L 26.632,2.192 L 26.632,2.227 L 26.630,2.262 L 26.627,2.297 L 26.622,2.333 L 26.616,2.368 L 26.607,2.403 L 26.589,2.466 L 26.373,3.198 L 26.361,3.241 L 26.166,3.979 L 26.155,4.021 L 25.983,4.758 L 25.974,4.800 L 25.824,5.536 L 25.816,5.577 L 25.687,6.311 L 25.681,6.352 L 25.573,7.084 L 25.567,7.124 L 25.480,7.854 L 25.475,7.893 L 25.407,8.621 L 25.404,8.659 L 25.355,9.383 L 25.353,9.421 L 25.322,10.141 L 25.321,10.178 L 25.308,10.894 L 25.308,10.930 L 25.312,11.642 L 25.313,11.677 L 25.334,12.384 L 25.335,12.418 L 25.372,13.120 L 25.374,13.153 L 25.426,13.850 L 25.429,13.882 L 25.495,14.572 L 25.499,14.604 L 25.580,15.288 L 25.583,15.319 L 25.678,15.996 L 25.682,16.026 L 25.789,16.695 L 25.794,16.724 L 25.913,17.386 L 25.919,17.415 L 26.050,18.069 L 26.055,18.096 L 26.197,18.742 L 26.203,18.769 L 26.356,19.406 L 26.362,19.432 L 26.524,20.060 L 26.531,20.085 L 26.702,20.703 L 26.709,20.728 L 26.889,21.336 L 26.896,21.360 L 27.084,21.958 L 27.091,21.981 L 27.286,22.568 L 27.294,22.591 L 27.495,23.167 L 27.503,23.189 L 27.711,23.753 L 27.719,23.775 L 27.932,24.327 L 27.941,24.349 L 28.158,24.888 L 28.167,24.909 L 28.389,25.436 L 28.398,25.457 L 28.624,25.971 L 28.633,25.991 L 28.861,26.491 L 28.871,26.512 L 29.101,26.998 L 29.111,27.018 L 29.344,27.490 L 29.354,27.509 L 29.587,27.966 L 29.597,27.986 L 29.832,28.428 L 29.842,28.447 L 30.070,28.863 L 30.098,28.915 L 30.112,28.946 L 30.125,28.977 L 30.136,29.009 L 30.146,29.041 L 30.154,29.073 L 30.161,29.105 L 30.166,29.138 L 30.170,29.171 L 30.172,29.205 L 30.173,29.238 L 30.172,29.271 L 30.170,29.304 L 30.166,29.337 L 30.161,29.370 L 30.155,29.402 L 30.147,29.433 L 30.138,29.464 L 30.128,29.494 L 30.117,29.522 L 30.104,29.550 L 30.091,29.576 L 30.077,29.601 L 30.063,29.624 L 30.048,29.646 L 30.032,29.666 L 30.016,29.685 L 30.000,29.702 L 29.984,29.718 L 29.967,29.733 L 29.951,29.746 L 29.934,29.758 L 29.917,29.769 L 29.899,29.779 L 29.881,29.788 L 29.861,29.797 L 29.841,29.805 L 29.819,29.811 L 29.795,29.818 L 29.760,29.825 L 28.221,30.068 L 26.728,30.255 L 25.290,30.388 L 23.906,30.469 L 22.575,30.499 L 21.297,30.482 L 20.070,30.419 L 18.893,30.312 L 17.765,30.164 L 16.687,29.977 L 15.655,29.753 L 14.670,29.494 L 13.731,29.202 L 12.835,28.879 L 11.983,28.527 L 11.173,28.149 L 10.403,27.745 L 9.673,27.319 L 8.982,26.871 L 8.329,26.404 L 7.712,25.919 L 7.130,25.417 L 6.584,24.902 L 6.071,24.374 L 5.592,23.835 L 5.144,23.287 L 4.729,22.732 L 4.344,22.172 L 3.989,21.607 L 3.664,21.042 L 3.368,20.476 L 3.099,19.913 L 2.859,19.354 L 2.645,18.802 L 2.457,18.258 L 2.295,17.725 L 2.157,17.205 L 2.044,16.699 L 1.954,16.212 L 1.885,15.733 L 1.841,15.367 L 1.799,14.987 L 1.760,14.604 L 1.725,14.218 L 1.692,13.830 L 1.662,13.440 L 1.635,13.049 L 1.611,12.657 L 1.590,12.265 L 1.571,11.873 L 1.554,11.480 L 1.540,11.089 L 1.528,10.698 L 1.518,10.309 L 1.511,9.921 L 1.505,9.536 L 1.502,9.153 L 1.500,8.773 L 1.500,8.396 L 1.502,8.023 L 1.505,7.654 L 1.510,7.290 L 1.516,6.930 L 1.524,6.576 L 1.533,6.226 L 1.542,5.883 L 1.553,5.546 L 1.565,5.216 L 1.578,4.893 L 1.591,4.577 L 1.605,4.269 L 1.620,3.968 L 1.635,3.677 L 1.650,3.394 L 1.666,3.121 L 1.681,2.857 L 1.697,2.603 L 1.713,2.359 L 1.729,2.126 L 1.744,1.918 L 1.746,1.886 L 1.749,1.869 L 1.752,1.852 L 1.755,1.836 L 1.759,1.820 L 1.763,1.805 L 1.768,1.790 L 1.774,1.776 L 1.780,1.762 L 1.786,1.748 L 1.793,1.734 L 1.801,1.720 L 1.809,1.707 L 1.818,1.694 L 1.827,1.681 L 1.837,1.669 L 1.847,1.657 L 1.858,1.645 L 1.869,1.633 L 1.881,1.622 L 1.894,1.611 L 1.906,1.601 L 1.920,1.591 L 1.933,1.581 L 1.947,1.572 L 1.962,1.563 L 1.977,1.555 L 1.992,1.547 L 2.008,1.540 L 2.024,1.533 L 2.040,1.527 L 2.056,1.522 L 2.073,1.517 L 2.091,1.513 L 2.108,1.509 L 2.126,1.506 L 2.145,1.504 L 2.164,1.502 L 2.183,1.501 L 2.217,1.500 L 26.016,1.500 Z" fill="#1c212a"/>
  <path d="M15.0972 18H12.0176L10.1665 14.937C10.0282 14.7046 9.89535 14.4971 9.76807 14.3145C9.64079 14.1318 9.51074 13.9769 9.37793 13.8496C9.25065 13.7168 9.11507 13.6172 8.97119 13.5508C8.83285 13.4788 8.68066 13.4429 8.51465 13.4429H7.79248V18H5.11133V6.09668H9.36133C12.25 6.09668 13.6943 7.17578 13.6943 9.33398C13.6943 9.74902 13.6307 10.1336 13.5034 10.4878C13.3761 10.8364 13.1963 11.1519 12.9639 11.4341C12.7314 11.7163 12.4492 11.9598 12.1172 12.1646C11.7907 12.3693 11.4255 12.5298 11.0215 12.646V12.6792C11.1986 12.7345 11.3701 12.8258 11.5361 12.9531C11.7021 13.0749 11.8626 13.2188 12.0176 13.3848C12.1725 13.5508 12.3192 13.7306 12.4575 13.9243C12.6014 14.1125 12.7314 14.2979 12.8477 14.4805L15.0972 18ZM7.79248 8.10547V11.4175H8.95459C9.53011 11.4175 9.99219 11.2515 10.3408 10.9194C10.695 10.5819 10.8721 10.1641 10.8721 9.66602C10.8721 8.62565 10.2495 8.10547 9.00439 8.10547H7.79248ZM24.228 8.27979H20.833V18H18.1436V8.27979H14.7651V6.09668H24.228V8.27979Z" fill="#1C212A"/>
</svg>
