<?xml version='1.0' encoding='UTF-8'?>
<svg xmlns="http://www.w3.org/2000/svg" width="32" height="32" viewBox="0 0 32 32" fill="none">
  <path d="M 27.076900000000002,19.0 A 11.0769,11.0769 0 1,0 4.9231,19.0 A 11.0769,11.0769 0 1,0 27.076900000000002,19.0 Z M 26.1538,19.0 A 10.1538,10.1538 0 1,1 5.8462,19.0 A 10.1538,10.1538 0 1,1 26.1538,19.0 Z" fill="#1c212a"/>
  <path d="M21.8472 25H18.7676L16.9165 21.937C16.7782 21.7046 16.6453 21.4971 16.5181 21.3145C16.3908 21.1318 16.2607 20.9769 16.1279 20.8496C16.0007 20.7168 15.8651 20.6172 15.7212 20.5508C15.5828 20.4788 15.4307 20.4429 15.2646 20.4429H14.5425V25H11.8613V13.0967H16.1113C19 13.0967 20.4443 14.1758 20.4443 16.334C20.4443 16.749 20.3807 17.1336 20.2534 17.4878C20.1261 17.8364 19.9463 18.1519 19.7139 18.4341C19.4814 18.7163 19.1992 18.9598 18.8672 19.1646C18.5407 19.3693 18.1755 19.5298 17.7715 19.646V19.6792C17.9486 19.7345 18.1201 19.8258 18.2861 19.9531C18.4521 20.0749 18.6126 20.2188 18.7676 20.3848C18.9225 20.5508 19.0692 20.7306 19.2075 20.9243C19.3514 21.1125 19.4814 21.2979 19.5977 21.4805L21.8472 25ZM14.5425 15.1055V18.4175H15.7046C16.2801 18.4175 16.7422 18.2515 17.0908 17.9194C17.445 17.5819 17.6221 17.1641 17.6221 16.666C17.6221 15.6257 16.9995 15.1055 15.7544 15.1055H14.5425Z" fill="#1C212A"/>
  <path d="M22.9533 7.44186C18.0575 4.945 14.6776 4.93463 9.13587 7.46188C9.02383 7.51297 8.92522 7.3469 9.02582 7.27589L16.4386 2.04336C16.475 2.01768 16.5239 2.01915 16.5587 2.04697L23.0739 7.25915C23.1696 7.33571 23.0624 7.49754 22.9533 7.44186Z" fill="#D6E1F6"/>
</svg>
